<svg width="1080" height="1350" viewBox="0 0 1080 1350" fill="none" xmlns="http://www.w3.org/2000/svg">
  <rect width="1080" height="1350" fill="#F5EADD"/>
  <rect y="824" width="1080" height="526" fill="#E2C8A6"/>
  <rect x="110" y="112" width="860" height="960" rx="48" fill="#FFF8F0"/>
  <rect x="154" y="166" width="772" height="136" rx="24" fill="#6E473B"/>
  <rect x="178" y="352" width="724" height="34" rx="17" fill="#8B5E4A"/>
  <rect x="178" y="596" width="724" height="34" rx="17" fill="#8B5E4A"/>
  <rect x="178" y="840" width="724" height="34" rx="17" fill="#8B5E4A"/>
  <rect x="208" y="214" width="68" height="112" rx="14" fill="#F28C6F"/>
  <rect x="286" y="198" width="52" height="128" rx="14" fill="#E6B85C"/>
  <rect x="348" y="228" width="60" height="98" rx="14" fill="#7A96D6"/>
  <rect x="418" y="188" width="82" height="138" rx="14" fill="#B96C63"/>
  <rect x="512" y="214" width="60" height="112" rx="14" fill="#7F9E76"/>
  <rect x="582" y="194" width="74" height="132" rx="14" fill="#C3834F"/>
  <rect x="668" y="220" width="64" height="106" rx="14" fill="#8A73A9"/>
  <rect x="742" y="204" width="86" height="122" rx="14" fill="#D46458"/>
  <rect x="218" y="434" width="74" height="140" rx="14" fill="#C59B62"/>
  <rect x="304" y="462" width="56" height="112" rx="14" fill="#6D8E80"/>
  <rect x="370" y="420" width="64" height="154" rx="14" fill="#D27F70"/>
  <rect x="446" y="448" width="58" height="126" rx="14" fill="#6587C3"/>
  <rect x="516" y="430" width="76" height="144" rx="14" fill="#A2675B"/>
  <rect x="604" y="466" width="52" height="108" rx="14" fill="#E5B45B"/>
  <rect x="666" y="440" width="84" height="134" rx="14" fill="#7D8B52"/>
  <rect x="762" y="426" width="56" height="148" rx="14" fill="#B889B5"/>
  <rect x="226" y="680" width="88" height="138" rx="14" fill="#DD7F62"/>
  <rect x="326" y="706" width="54" height="112" rx="14" fill="#6D90B2"/>
  <rect x="392" y="664" width="70" height="154" rx="14" fill="#CCB16A"/>
  <rect x="474" y="700" width="58" height="118" rx="14" fill="#8D6F58"/>
  <rect x="544" y="672" width="82" height="146" rx="14" fill="#B76656"/>
  <rect x="638" y="696" width="64" height="122" rx="14" fill="#79936A"/>
  <rect x="714" y="676" width="74" height="142" rx="14" fill="#9A7CBD"/>
  <circle cx="812" cy="736" r="48" fill="#F5D7A0"/>
  <path d="M786 736C786 721.64 797.64 710 812 710C826.36 710 838 721.64 838 736" stroke="#6E473B" stroke-width="14" stroke-linecap="round"/>
  <path d="M240 950H468C500.033 950 526 975.967 526 1008V1028H240V950Z" fill="#B96C63"/>
  <rect x="560" y="926" width="238" height="118" rx="30" fill="#6F8E73"/>
  <rect x="602" y="958" width="154" height="54" rx="27" fill="#EDF4E8"/>
  <circle cx="232" cy="1000" r="18" fill="#FFF8F0"/>
  <circle cx="312" cy="1000" r="18" fill="#FFF8F0"/>
  <circle cx="392" cy="1000" r="18" fill="#FFF8F0"/>
</svg>
