<svg width="1080" height="1350" viewBox="0 0 1080 1350" fill="none" xmlns="http://www.w3.org/2000/svg">
  <rect width="1080" height="1350" fill="#DDECF7"/>
  <rect y="780" width="1080" height="570" fill="#E9D3C5"/>
  <rect x="0" y="914" width="206" height="436" fill="#8D8FA8"/>
  <rect x="156" y="852" width="174" height="498" fill="#6D7393"/>
  <rect x="300" y="958" width="192" height="392" fill="#A46D63"/>
  <rect x="458" y="892" width="226" height="458" fill="#748A72"/>
  <rect x="650" y="1018" width="168" height="332" fill="#C48766"/>
  <rect x="790" y="878" width="290" height="472" fill="#6F7CA4"/>
  <path d="M134 268C224 242 304 236 398 248C538 266 642 332 826 292C898 276 962 246 1018 202" stroke="#56678F" stroke-width="8" stroke-linecap="round"/>
  <path d="M154 322C244 296 334 294 420 306C560 324 662 390 850 350C916 336 974 314 1026 274" stroke="#56678F" stroke-width="8" stroke-linecap="round"/>
  <rect x="202" y="256" width="112" height="132" rx="18" fill="#FFF6EA"/>
  <rect x="360" y="276" width="152" height="110" rx="18" fill="#F4B6A2"/>
  <rect x="566" y="252" width="108" height="136" rx="18" fill="#C6D8F2"/>
  <path d="M782 250H928L900 386H810L782 250Z" fill="#FFF0B3"/>
  <circle cx="246" cy="224" r="14" fill="#E59A8A"/>
  <circle cx="440" cy="240" r="14" fill="#E59A8A"/>
  <circle cx="620" cy="220" r="14" fill="#E59A8A"/>
  <circle cx="854" cy="220" r="14" fill="#E59A8A"/>
  <rect x="232" y="972" width="32" height="32" fill="#DDECF7"/>
  <rect x="278" y="972" width="32" height="32" fill="#DDECF7"/>
  <rect x="232" y="1018" width="32" height="32" fill="#DDECF7"/>
  <rect x="278" y="1018" width="32" height="32" fill="#DDECF7"/>
  <rect x="528" y="956" width="34" height="34" fill="#E9F6E5"/>
  <rect x="578" y="956" width="34" height="34" fill="#E9F6E5"/>
  <rect x="528" y="1004" width="34" height="34" fill="#E9F6E5"/>
  <rect x="578" y="1004" width="34" height="34" fill="#E9F6E5"/>
  <rect x="856" y="940" width="34" height="34" fill="#E8ECF9"/>
  <rect x="906" y="940" width="34" height="34" fill="#E8ECF9"/>
  <rect x="956" y="940" width="34" height="34" fill="#E8ECF9"/>
  <circle cx="210" cy="134" r="54" fill="#FFF8E3"/>
  <circle cx="760" cy="136" r="38" fill="#F4F8FB"/>
  <circle cx="804" cy="140" r="48" fill="#F4F8FB"/>
  <circle cx="850" cy="138" r="34" fill="#F4F8FB"/>
</svg>
